<svg width="328" height="64" viewBox="0 0 328 64" fill="none" xmlns="http://www.w3.org/2000/svg">
  <path d="M37.3766 24.0912H46.1049L47.3323 15.3612H56.0607L54.8333 24.0912H46.1049L43.3258 43.8607C42.9488 46.5399 40.6572 48.5335 37.9518 48.5335H25.2116L26.439 39.8034H17.7106L16.4833 48.5335H7.75317L8.98051 39.8034H17.7106L20.4898 20.034C20.8668 17.3548 23.1584 15.3612 25.8639 15.3612H38.6039L37.3766 24.0912ZM26.439 39.8034H35.1691L37.3766 24.0912H28.6465L26.439 39.8034Z" fill="url(#paint0_linear_1_116514)"/>
  <path d="M75.92 43.36C72.6133 43.36 69.8133 42.8667 67.52 41.88C65.2533 40.8667 63.5333 39.44 62.36 37.6C61.1867 35.76 60.6 33.6 60.6 31.12H67.04C67.04 32.3467 67.3333 33.4667 67.92 34.48C68.5067 35.4933 69.4533 36.3067 70.76 36.92C72.0667 37.5067 73.7867 37.8 75.92 37.8C77.8133 37.8 79.3467 37.5333 80.52 37C81.72 36.44 82.6 35.7333 83.16 34.88C83.72 34 84 33.04 84 32C84 30.6667 83.4267 29.6267 82.28 28.88C81.1333 28.1333 79.2667 27.6667 76.68 27.48L73.32 27.2C69.7733 26.9067 66.92 25.8 64.76 23.88C62.6267 21.96 61.56 19.3867 61.56 16.16C61.56 13.68 62.1467 11.5333 63.32 9.72C64.52 7.90667 66.1733 6.50667 68.28 5.52C70.4133 4.53333 72.9067 4.04 75.76 4.04C78.7467 4.04 81.3333 4.56 83.52 5.6C85.7067 6.61333 87.4 8.06667 88.6 9.96C89.8 11.8267 90.4 14.0533 90.4 16.64H83.96C83.96 15.3867 83.6667 14.24 83.08 13.2C82.52 12.16 81.64 11.3333 80.44 10.72C79.24 10.08 77.68 9.76 75.76 9.76C74 9.76 72.56 10.0267 71.44 10.56C70.3467 11.0933 69.5333 11.8 69 12.68C68.4933 13.5333 68.24 14.44 68.24 15.4C68.24 16.5733 68.68 17.5867 69.56 18.44C70.4667 19.2667 71.9333 19.76 73.96 19.92L77.32 20.2C80.04 20.4133 82.4133 20.96 84.44 21.84C86.4667 22.72 88.04 23.9733 89.16 25.6C90.3067 27.2 90.88 29.2267 90.88 31.68C90.88 34.08 90.2533 36.1733 89 37.96C87.7467 39.7467 85.9867 41.08 83.72 41.96C81.48 42.8933 78.88 43.36 75.92 43.36Z" fill="#9950FF"/>
  <text x="101" y="41" fill="#9950FF" font-family="Inter, Arial, Helvetica, sans-serif" font-size="31" font-weight="800" letter-spacing="-0.4">SeaBond Docs</text>
  <defs>
    <linearGradient id="paint0_linear_1_116514" x1="47.3925" y1="87.3563" x2="-4.49319" y2="36.8694" gradientUnits="userSpaceOnUse">
      <stop stop-color="#4F39F6"/>
      <stop offset="1" stop-color="#9950FF"/>
    </linearGradient>
  </defs>
</svg>
